<?xml version="1.0" encoding="UTF-8" standalone="no"?>
<!-- Generator: Adobe Illustrator 16.0.0, SVG Export Plug-In . SVG Version: 6.00 Build 0)  -->

<svg
   xmlns:dc="http://purl.org/dc/elements/1.1/"
   xmlns:cc="http://creativecommons.org/ns#"
   xmlns:rdf="http://www.w3.org/1999/02/22-rdf-syntax-ns#"
   xmlns:svg="http://www.w3.org/2000/svg"
   xmlns="http://www.w3.org/2000/svg"
   xmlns:sodipodi="http://sodipodi.sourceforge.net/DTD/sodipodi-0.dtd"
   xmlns:inkscape="http://www.inkscape.org/namespaces/inkscape"
   version="1.1"
   id="Capa_1"
   x="0px"
   y="0px"
   width="18"
   height="18"
   viewBox="0 0 17.999999 17.999999"
   xml:space="preserve"
   sodipodi:docname="calendar-daily.svg"
   inkscape:version="0.92.3 (2405546, 2018-03-11)"><metadata
   id="metadata51"><rdf:RDF><cc:Work
       rdf:about=""><dc:format>image/svg+xml</dc:format><dc:type
         rdf:resource="http://purl.org/dc/dcmitype/StillImage" /><dc:title></dc:title></cc:Work></rdf:RDF></metadata><defs
   id="defs49" /><sodipodi:namedview
   pagecolor="#ffffff"
   bordercolor="#666666"
   borderopacity="1"
   objecttolerance="10"
   gridtolerance="10"
   guidetolerance="10"
   inkscape:pageopacity="0"
   inkscape:pageshadow="2"
   inkscape:window-width="1366"
   inkscape:window-height="706"
   id="namedview47"
   showgrid="false"
   inkscape:zoom="13.664425"
   inkscape:cx="19.549173"
   inkscape:cy="6.2361988"
   inkscape:window-x="-8"
   inkscape:window-y="-8"
   inkscape:window-maximized="1"
   inkscape:current-layer="Capa_1" />
<g
   id="g14"
   transform="matrix(0.06513762,0,0,0.06513762,0.03142826,0.03460851)"
   style="stroke-width:15.35211086">
	<g
   id="g12"
   style="stroke-width:15.35211086">
		<path
   d="m 267.207,99.838 v -37.64 -4.123 c 0,-21.569 -19.036,-39.141 -42.689,-39.748 v 0.005 9.549 0.009 9.6 0.019 5.454 c 0,13.999 -11.388,25.387 -25.384,25.387 -13.997,0 -25.385,-11.388 -25.385,-25.387 v -5.582 -9.558 -9.558 h -71.98 v 9.558 9.558 5.582 c 0,13.999 -11.388,25.387 -25.386,25.387 -13.997,0 -25.384,-11.388 -25.384,-25.387 V 37.591 37.558 27.927 27.918 18.37 18.36 C 27.737,19.345 9.131,36.756 9.131,58.07 v 4.123 37.64 132.573 c 0,24.218 19.709,43.932 43.929,43.932 h 170.216 c 24.217,0 43.927,-19.714 43.927,-43.932 V 99.838 Z M 248.09,232.411 c 0,13.684 -11.131,24.811 -24.814,24.811 H 53.065 c -13.682,0 -24.812,-11.127 -24.812,-24.811 V 99.838 H 248.09 Z"
   id="path2"
   inkscape:connector-curvature="0"
   style="stroke-width:15.35211086" />
		<path
   d="m 65.339,11.049 v 7.215 9.558 9.558 5.582 c 0,6.104 4.945,11.049 11.049,11.049 6.102,0 11.049,-4.945 11.049,-11.049 V 37.38 27.822 18.264 11.049 C 87.438,4.945 82.491,0 76.389,0 70.284,0.005 65.339,4.95 65.339,11.049 Z"
   id="path4"
   inkscape:connector-curvature="0"
   style="stroke-width:15.35211086" />
		<path
   d="m 199.137,0.005 c -6.104,0 -11.051,4.945 -11.051,11.049 v 7.215 9.558 9.558 5.582 c 0,6.104 4.946,11.049 11.051,11.049 6.105,0 11.052,-4.945 11.052,-11.049 V 37.38 27.822 18.264 11.049 C 210.18,4.95 205.238,0.005 199.137,0.005 Z"
   id="path6"
   inkscape:connector-curvature="0"
   style="stroke-width:15.35211086" />
		<path
   d="m 106.19,231.87 c 12.463,0 21.875,-3.481 28.238,-10.445 6.352,-6.963 9.535,-15.037 9.535,-24.222 0,-8.737 -2.719,-15.626 -8.163,-20.666 -1.477,-1.354 -2.814,-2.437 -4.009,-3.239 -2.188,-1.475 -2.352,-2.529 -0.292,-4.125 1.157,-0.901 2.294,-1.988 3.407,-3.268 3.794,-4.392 5.691,-9.782 5.691,-16.176 0,-9.026 -3.171,-16.23 -9.532,-21.597 -6.361,-5.367 -14.725,-8.048 -25.095,-8.048 -5.582,0 -10.296,0.674 -14.137,2.021 -3.839,1.349 -7.15,3.292 -9.945,5.841 -3.739,3.594 -6.48,7.512 -8.23,11.759 -1.15,3.388 -1.949,6.921 -2.39,10.584 -0.315,2.623 1.769,4.761 4.406,4.761 H 86.03 c 2.64,0 4.674,-2.156 5.057,-4.77 0.465,-3.174 1.505,-5.853 3.116,-8.032 2.366,-3.192 6.065,-4.793 11.093,-4.793 4.383,0 7.775,1.297 10.193,3.893 2.408,2.595 3.619,5.964 3.619,10.108 0,6.395 -2.366,10.637 -7.089,12.732 -2.053,0.933 -5.29,1.544 -9.696,1.838 -2.632,0.168 -4.774,2.324 -4.774,4.957 v 5.717 c 0,2.637 2.147,4.756 4.784,4.9 4.669,0.248 8.254,0.878 10.744,1.899 5.773,2.399 8.66,7.169 8.66,14.3 0,5.396 -1.559,9.521 -4.669,12.396 -3.11,2.87 -6.763,4.303 -10.944,4.303 -6.823,0 -11.532,-2.618 -14.118,-7.859 -0.845,-1.731 -1.433,-3.733 -1.767,-6.011 -0.383,-2.614 -2.462,-4.771 -5.106,-4.771 H 73.726 c -2.639,0 -4.718,2.138 -4.427,4.761 0.714,6.478 2.343,11.878 4.879,16.194 5.979,10.041 16.653,15.058 32.012,15.058 z"
   id="path8"
   inkscape:connector-curvature="0"
   style="stroke-width:15.35211086" />
		<path
   d="m 165.582,154.303 h 15.976 c 2.637,0 4.778,2.138 4.778,4.779 v 65.312 c 0,2.637 2.143,4.779 4.779,4.779 h 12.308 c 2.637,0 4.778,-2.143 4.778,-4.779 v -99.005 c 0,-2.637 -2.142,-4.779 -4.778,-4.779 h -8.266 c -2.637,0 -4.812,0.994 -5.064,2.188 -0.135,0.63 -0.312,1.349 -0.541,2.151 -0.942,3.244 -2.343,5.839 -4.182,7.785 -2.688,2.842 -6.175,4.739 -10.454,5.691 -1.997,0.448 -5.115,0.808 -9.344,1.092 -2.632,0.168 -4.77,2.399 -4.77,5.031 v 4.966 c 0,2.647 2.147,4.789 4.78,4.789 z"
   id="path10"
   inkscape:connector-curvature="0"
   style="stroke-width:15.35211086" />
	</g>
</g>
<g
   id="g16"
   transform="translate(0,-258.33801)">
</g>
<g
   id="g18"
   transform="translate(0,-258.33801)">
</g>
<g
   id="g20"
   transform="translate(0,-258.33801)">
</g>
<g
   id="g22"
   transform="translate(0,-258.33801)">
</g>
<g
   id="g24"
   transform="translate(0,-258.33801)">
</g>
<g
   id="g26"
   transform="translate(0,-258.33801)">
</g>
<g
   id="g28"
   transform="translate(0,-258.33801)">
</g>
<g
   id="g30"
   transform="translate(0,-258.33801)">
</g>
<g
   id="g32"
   transform="translate(0,-258.33801)">
</g>
<g
   id="g34"
   transform="translate(0,-258.33801)">
</g>
<g
   id="g36"
   transform="translate(0,-258.33801)">
</g>
<g
   id="g38"
   transform="translate(0,-258.33801)">
</g>
<g
   id="g40"
   transform="translate(0,-258.33801)">
</g>
<g
   id="g42"
   transform="translate(0,-258.33801)">
</g>
<g
   id="g44"
   transform="translate(0,-258.33801)">
</g>
</svg>