<?xml version="1.0" encoding="UTF-8" standalone="no"?>
<!-- Generator: Adobe Illustrator 16.0.0, SVG Export Plug-In . SVG Version: 6.00 Build 0)  -->

<svg
   xmlns:dc="http://purl.org/dc/elements/1.1/"
   xmlns:cc="http://creativecommons.org/ns#"
   xmlns:rdf="http://www.w3.org/1999/02/22-rdf-syntax-ns#"
   xmlns:svg="http://www.w3.org/2000/svg"
   xmlns="http://www.w3.org/2000/svg"
   xmlns:sodipodi="http://sodipodi.sourceforge.net/DTD/sodipodi-0.dtd"
   xmlns:inkscape="http://www.inkscape.org/namespaces/inkscape"
   version="1.1"
   id="Capa_1"
   x="0px"
   y="0px"
   width="18"
   height="18"
   viewBox="0 0 18 18"
   xml:space="preserve"
   sodipodi:docname="newspaper.svg"
   inkscape:version="0.92.3 (2405546, 2018-03-11)"><metadata
   id="metadata41"><rdf:RDF><cc:Work
       rdf:about=""><dc:format>image/svg+xml</dc:format><dc:type
         rdf:resource="http://purl.org/dc/dcmitype/StillImage" /><dc:title></dc:title></cc:Work></rdf:RDF></metadata><defs
   id="defs39" /><sodipodi:namedview
   pagecolor="#ffffff"
   bordercolor="#666666"
   borderopacity="1"
   objecttolerance="10"
   gridtolerance="10"
   guidetolerance="10"
   inkscape:pageopacity="0"
   inkscape:pageshadow="2"
   inkscape:window-width="1366"
   inkscape:window-height="706"
   id="namedview37"
   showgrid="false"
   inkscape:zoom="5.58833"
   inkscape:cx="15.600197"
   inkscape:cy="-0.4743922"
   inkscape:window-x="-8"
   inkscape:window-y="-8"
   inkscape:window-maximized="1"
   inkscape:current-layer="g4" />
<g
   id="g4"
   transform="matrix(0.0333578,0,0,0.0333578,6.4400192,-7.6475247)"
   style="stroke-width:29.97800064"
   inkscape:transform-center-x="13.823145"
   inkscape:transform-center-y="22.577807">
	<path
   d="M 343.36577,236.01607 H -44.795405 c -4.688885,0 -8.483703,3.80276 -8.483703,8.48768 v 33.90699 h -62.944302 c -2.4418,0 -4.77531,1.05699 -6.38463,2.89976 -1.60932,1.84873 -2.33749,4.29152 -2.02258,6.71841 l 3.29712,24.35936 h -57.93554 c -2.66134,0 -5.18559,1.25566 -6.78995,3.38851 -1.60236,2.13185 -2.10304,4.89253 -1.35302,7.46943 L -58.281909,765.9415 c 1.07884,3.71336 4.462387,6.12138 8.154884,6.12138 0.784792,0 393.488825,0 393.488825,0 4.68391,0 8.48867,-3.78488 8.48867,-8.49165 V 244.50871 c 0,-4.68988 -3.80575,-8.49264 -8.4847,-8.49264 z M -53.278114,295.38709 V 688.56795 L -106.49894,295.38709 Z m -65.761606,33.97156 42.364866,312.91849 -91.282256,-312.91849 z M 334.87909,755.08753 H -36.311703 V 252.9944 H 334.88703 V 755.08753 Z M 112.15806,320.02459 H -22.769568 V 281.83303 H 112.15309 Z m 210.02428,0 H 187.2567 V 281.83303 H 322.17738 Z M 120.86726,300.9313 c 0,-15.69188 12.72556,-28.42736 28.41544,-28.42736 15.69783,0 28.43332,12.73052 28.43332,28.42736 0,15.70081 -12.74145,28.42735 -28.43332,28.42735 -15.69485,0 -28.41544,-12.73052 -28.41544,-28.42735 z M 302.1771,507.86112 H 187.2567 v -128.995 H 302.17312 Z M 132.31033,397.82432 H -8.9751084 V 383.67521 H 132.31033 Z M -8.9751084,437.98183 H 132.31033 v 14.1501 H -8.9751084 Z m 1.590446,55.54143 H 133.90276 v 14.14812 H -7.3846624 Z m -1.590446,55.94972 H 302.1771 v 14.14315 H -8.9751084 Z m 0,55.86031 H 302.1771 v 14.14315 H -8.9751084 Z m 0,55.154 H 302.1771 v 14.15308 H -8.9751084 Z"
   id="path2"
   inkscape:connector-curvature="0"
   style="stroke-width:29.97800064" />
</g>
<g
   id="g6"
   transform="translate(0,-525.185)">
</g>
<g
   id="g8"
   transform="translate(0,-525.185)">
</g>
<g
   id="g10"
   transform="translate(0,-525.185)">
</g>
<g
   id="g12"
   transform="translate(0,-525.185)">
</g>
<g
   id="g14"
   transform="translate(0,-525.185)">
</g>
<g
   id="g16"
   transform="translate(0,-525.185)">
</g>
<g
   id="g18"
   transform="translate(0,-525.185)">
</g>
<g
   id="g20"
   transform="translate(0,-525.185)">
</g>
<g
   id="g22"
   transform="translate(0,-525.185)">
</g>
<g
   id="g24"
   transform="translate(0,-525.185)">
</g>
<g
   id="g26"
   transform="translate(0,-525.185)">
</g>
<g
   id="g28"
   transform="translate(0,-525.185)">
</g>
<g
   id="g30"
   transform="translate(0,-525.185)">
</g>
<g
   id="g32"
   transform="translate(0,-525.185)">
</g>
<g
   id="g34"
   transform="translate(0,-525.185)">
</g>
</svg>